Coordinates
version=1
nRows=18
nColumns=38
inDegrees=yes

Units are S.I. units (second, meters, Newtons, ...)
Angles are in degrees.

endheader
time	pelvis_tilt	pelvis_list	pelvis_rotation	pelvis_tx	pelvis_ty	pelvis_tz	hip_flexion_r	hip_adduction_r	hip_rotation_r	knee_angle_r	ankle_angle_r	subtalar_angle_r	mtp_angle_r	hip_flexion_l	hip_adduction_l	hip_rotation_l	knee_angle_l	ankle_angle_l	subtalar_angle_l	mtp_angle_l	lumbar_extension	lumbar_bending	lumbar_rotation	arm_flex_r	arm_add_r	arm_rot_r	elbow_flex_r	pro_sup_r	wrist_flex_r	wrist_dev_r	arm_flex_l	arm_add_l	arm_rot_l	elbow_flex_l	pro_sup_l	wrist_flex_l	wrist_dev_l
      1.44000000	     -1.16874936	      6.23363681	     -0.48431437	     -0.53274894	      0.91046440	     -0.26581657	     11.59981917	     -3.86103566	     -0.43847475	    -65.96487371	    -13.28605672	    -15.38504237	     21.52362393	     19.74835483	     10.97586883	      2.00684189	    -26.68170613	      3.91739491	      0.76773670	      2.79670601	     -4.70522463	     -5.48214597	     -0.47238447	     -1.69134126	    -18.42964743	     10.23257806	     24.20674884	     86.51662706	      0.00000000	      0.00000000	     -2.58807046	    -14.42591575	     25.60334870	     12.26031959	     86.51662706	      0.00000000	      0.00000000
      1.45000000	     -1.20301977	      6.01572689	     -0.75950805	     -0.52134113	      0.91233749	     -0.26521299	     13.56905074	     -3.51363738	      0.03181939	    -66.80465402	    -12.42610603	    -15.30111052	     20.91138194	     18.69003744	     10.59768115	      1.62917499	    -26.19421605	      4.62739901	      1.39810868	      2.55656940	     -4.81071854	     -5.17817452	     -0.67766848	     -1.64547006	    -18.39437420	     11.09828843	     22.98536657	     86.51662706	      0.00000000	      0.00000000	     -2.13458824	    -14.58374514	     25.08143511	     13.29280835	     86.51662706	      0.00000000	      0.00000000
      1.46000000	     -1.23914876	      5.77376352	     -0.98197142	     -0.50987221	      0.91423232	     -0.26462138	     15.43873813	     -3.14357778	      0.42590190	    -67.26888447	    -11.50595209	    -14.74312743	     20.41553928	     17.59305644	     10.23823999	      1.46312366	    -25.65443867	      5.26755326	      1.87723526	      2.36742153	     -4.90524422	     -4.84118812	     -0.90699046	     -1.66847641	    -18.35428494	     11.88139598	     21.84831150	     86.51662706	      0.00000000	      0.00000000	     -1.67771586	    -14.75331051	     24.62328761	     14.35672602	     86.51662706	      0.00000000	      0.00000000
      1.47000000	     -1.27816293	      5.51859893	     -1.13929741	     -0.49833998	      0.91609247	     -0.26406675	     17.20071283	     -2.78341746	      0.72390991	    -67.37054213	    -10.53313911	    -13.85445677	     20.01742518	     16.46597764	      9.90997328	      1.50806285	    -25.06956696	      5.84402445	      2.20107267	      2.22750946	     -4.98455569	     -4.48733877	     -1.16735195	     -1.76789176	    -18.30480690	     12.55575658	     20.80670519	     86.51662706	      0.00000000	      0.00000000	     -1.21702135	    -14.94005151	     24.22584300	     15.45224654	     86.51662706	      0.00000000	      0.00000000
      1.48000000	     -1.32064605	      5.25799161	     -1.22507158	     -0.48677152	      0.91786493	     -0.26358047	     18.84924441	     -2.45880479	      0.90893555	    -67.12160849	     -9.52531261	    -12.79737811	     19.68796396	     15.32007173	      9.61795775	      1.73813681	    -24.44825683	      6.36187721	      2.37885876	      2.13151445	     -5.04637995	     -4.12749988	     -1.46473750	     -1.94185718	    -18.24546361	     13.10409898	     19.86502176	     86.51662706	      0.00000000	      0.00000000	     -0.75197105	    -15.14732559	     23.88319552	     16.57846250	     86.51662706	      0.00000000	      0.00000000
      1.49000000	     -1.36643623	      4.99797692	     -1.23883374	     -0.47518331	      0.91950886	     -0.26317745	     20.37840847	     -2.18628621	      0.97165670	    -66.53178931	     -8.51290023	    -11.73327436	     19.39319358	     14.16665850	      9.36166255	      2.10923713	    -23.80072413	      6.82718381	      2.43152168	      2.07162695	     -5.09056335	     -3.76898920	     -1.80289973	     -2.18134427	    -18.17858687	     13.51819329	     19.02155830	     86.51662706	      0.00000000	      0.00000000	     -0.28220847	    -15.37657171	     23.58771654	     17.73299807	     86.51662706	      0.00000000	      0.00000000
      1.50000000	     -1.41373410	      4.74351391	     -1.18531666	     -0.46356599	      0.92099267	     -0.26284357	     21.78114220	     -1.97348806	      0.91352356	    -65.60877882	     -7.53612624	    -10.80543070	     19.09948671	     13.01329757	      9.13623464	      2.56850120	    -23.13738852	      7.24868911	      2.38886841	      2.03873160	     -5.11928107	     -3.41755203	     -2.18223262	     -2.47312025	    -18.10750903	     13.79811948	     18.26966786	     86.51662706	      0.00000000	      0.00000000	      0.19238434	    -15.62765514	     23.33108970	     18.91193922	     86.51662706	      0.00000000	      0.00000000
      1.51000000	     -1.45862908	      4.49882499	     -1.07367104	     -0.45190553	      0.92228942	     -0.26255012	     23.04984053	     -1.82063602	      0.74722335	    -64.35945918	     -6.63801067	    -10.12554425	     18.77789873	     11.86062464	      8.93369720	      3.06410466	    -22.46654523	      7.63838350	      2.28580525	      2.02357111	     -5.13731485	     -3.07875030	     -2.59905870	     -2.80269915	    -18.03490483	     13.95086173	     17.59942076	     86.51662706	      0.00000000	      0.00000000	      0.67180939	    -15.89923411	     23.10513665	     20.11003427	     86.51662706	      0.00000000	      0.00000000
      1.52000000	     -1.49563847	      4.26768002	     -0.91668393	     -0.44020267	      0.92337880	     -0.26227388	     24.17732038	     -1.72252996	      0.49422073	    -62.79137704	     -5.85578051	     -9.76433009	     18.40734345	     10.70149425	      8.74474542	      3.55328478	    -21.79209409	      8.01077185	      2.15804882	      2.01779536	     -5.15200808	     -2.75834512	     -3.04562147	     -3.15666978	    -17.96181219	     13.98850733	     16.99933386	     86.51662706	      0.00000000	      0.00000000	      1.15610182	    -16.18908686	     22.90237420	     21.32106331	     86.51662706	      0.00000000	      0.00000000
      1.53000000	     -1.51864950	      4.05345229	     -0.72943720	     -0.42846870	      0.92424815	     -0.26200535	     25.15755790	     -1.67099995	      0.18042259	    -60.91368002	     -5.21305941	     -9.74633368	     17.97647482	      9.52296690	      8.56107528	      4.00716582	    -21.11249895	      8.38105306	      2.03793633	      2.01482002	     -5.17250294	     -2.46191482	     -3.51094980	     -3.52407763	    -17.88751011	     13.92633658	     16.45786217	     86.51662706	      0.00000000	      0.00000000	      1.64533548	    -16.49439687	     22.71629737	     22.53825572	     86.51662706	      0.00000000	      0.00000000
      1.54000000	     -1.52161354	      3.85909057	     -0.52711477	     -0.41671100	      0.92488678	     -0.26173957	     25.98611200	     -1.65756146	     -0.16876286	    -58.73713570	     -4.71471292	    -10.04895116	     17.48419863	      8.31047611	      8.37757551	      4.41189047	    -20.42160362	      8.76273383	      1.95098889	      2.01041620	     -5.20824074	     -2.19421800	     -3.98251447	     -3.89684711	    -17.81004428	     13.78106251	     15.96445688	     86.51662706	      0.00000000	      0.00000000	      2.13940706	    -16.81197918	     22.54141744	     23.75464594	     86.51662706	      0.00000000	      0.00000000
      1.55000000	     -1.49933670	      3.68744711	     -0.32253817	     -0.40492456	      0.92528431	     -0.26145770	     26.66024268	     -1.67538632	     -0.53305249	    -56.27372592	     -4.34551856	    -10.60554271	     16.93879132	      7.05253454	      8.19342937	      4.76658419	    -19.71120584	      9.16531092	      1.91378205	      2.00295704	     -5.26708194	     -1.95872149	     -4.44831497	     -4.26947348	    -17.72701241	     13.56942290	     15.51012131	     86.51662706	      0.00000000	      0.00000000	      2.63763837	    -17.13844110	     22.37311160	     24.96329609	     86.51662706	      0.00000000	      0.00000000
      1.56000000	     -1.44878334	      3.54149298	     -0.12450370	     -0.39309184	      0.92544054	     -0.26113200	     27.17923151	     -1.72020135	     -0.90064112	    -53.53663723	     -4.07289719	    -11.31242031	     16.35577309	      5.74410789	      8.01145497	      5.07939714	    -18.97468212	      9.59259930	      1.93341962	      1.99328376	     -5.35362437	     -1.75748601	     -4.89881914	     -4.63829143	    -17.63629234	     13.30724415	     15.08750397	     86.51662706	      0.00000000	      0.00000000	      3.13835603	    -17.47026621	     22.20735894	     26.15737124	     86.51662706	      0.00000000	      0.00000000
      1.57000000	     -1.37043666	      3.42361996	      0.06254909	     -0.38119005	      0.92537135	     -0.26075198	     27.54539384	     -1.79022677	     -1.26953985	    -50.54127201	     -3.85297601	    -12.03934930	     15.75490452	      4.38779584	      7.83599507	      5.36299024	    -18.21047122	     10.04217498	      2.00853600	      1.98422571	     -5.46825611	     -1.59127601	     -5.32820000	     -5.00059948	    -17.53654111	     13.00899991	     14.69063815	     86.51662706	      0.00000000	      0.00000000	      3.63866740	    -17.80372925	     22.04043509	     27.33010543	     86.51662706	      0.00000000	      0.00000000
      1.58000000	     -1.26851285	      3.33445825	      0.23796097	     -0.36920096	      0.92509912	     -0.26032752	     27.76589830	     -1.88518359	     -1.64688322	    -47.30730740	     -3.63856301	    -12.64295671	     15.15683131	      2.99317913	      7.67041246	      5.63045965	    -17.42424154	     10.50619942	      2.13141692	      1.97988783	     -5.60718114	     -1.45959327	     -5.73459295	     -5.35388324	    -17.42738775	     12.68779459	     14.31446305	     86.51662706	      0.00000000	      0.00000000	      4.13455892	    -18.13464487	     21.86864186	     28.47472293	     86.51662706	      0.00000000	      0.00000000
      1.59000000	     -1.14969877	      3.27218685	      0.40386016	     -0.35712093	      0.92463571	     -0.25986686	     27.85462756	     -2.00453275	     -2.04665851	    -43.86150742	     -3.38743172	    -12.98208453	     14.57991403	      1.57515452	      7.51540072	      5.89217003	    -16.62911553	     10.97351591	      2.29064283	      1.98485718	     -5.76329237	     -1.36054888	     -6.11940229	     -5.69530081	    -17.30934138	     12.35564115	     13.95425619	     86.51662706	      0.00000000	      0.00000000	      4.62127448	    -18.45818857	     21.68815088	     29.58437995	     86.51662706	      0.00000000	      0.00000000
      1.60000000	     -1.02165763	      3.23246904	      0.56372451	     -0.34496155	      0.92397759	     -0.25935917	     27.83242495	     -2.14568699	     -2.48630421	    -40.24102909	     -3.06943555	    -12.93373443	     14.03770851	      0.15196893	      7.36890669	      6.15368665	    -15.84401476	     11.43244781	      2.47366337	      2.00346549	     -5.92753729	     -1.29073057	     -6.48592387	     -6.02146466	    -17.18353353	     12.02388520	     13.60509571	     86.51662706	      0.00000000	      0.00000000	      5.09383081	    -18.76901828	     21.49500614	     30.65219213	     86.51662706	      0.00000000	      0.00000000
      1.61000000	     -0.89221000	      3.20926785	      0.72065213	     -0.33273192	      0.92312287	     -0.25877717	     27.72520978	     -2.30274301	     -2.98279184	    -36.49651862	     -2.67115115	    -12.40795338	     13.53747967	     -1.25680483	      7.22736400	      6.41497223	    -15.09080926	     11.87339225	      2.66887461	      2.03920721	     -6.09034349	     -1.24518204	     -6.83768684	     -6.32842558	    -17.05140366	     11.70364548	     13.26148804	     86.51662706	      0.00000000	      0.00000000	      5.54753366	    -19.06166078	     21.28526313	     31.67141818	     86.51662706	      0.00000000	      0.00000000
